<svg width="40" height="40" viewBox="0 0 40 40" fill="none" xmlns="http://www.w3.org/2000/svg">
<path d="M20.4966 7.03996L25.8162 10.04L28.5135 8.52335L20.4966 4L7.10549 11.5567L9.78915 13.0733L20.4966 7.03996Z" fill="#37344E"/>
<path d="M31.1973 10.0401L20.4967 16.0734L15.177 13.0734L12.4865 14.59L20.4967 19.1067L33.8946 11.5567L31.1973 10.0401Z" fill="#37344E"/>
<path d="M8.69048 20.9266L6 19.41V28.4433L19.3911 36V32.9667L8.69048 26.9267V20.9266Z" fill="#37344E"/>
<path d="M6 16.3766L16.7006 22.4099V28.41L19.3911 29.9333V20.8933L6 13.3433V16.3766Z" fill="#37344E"/>
<path d="M29.6189 19.4099V16.3766L21.602 20.8933V36L24.2925 34.4833V22.41L29.6189 19.4099Z" fill="#37344E"/>
<path d="M32.3027 14.8599V26.9266L26.983 29.9333V32.9666L35 28.4433V13.3433L32.3027 14.8599Z" fill="#37344E"/>
</svg>
